<svg width="22" height="21" viewBox="0 0 22 21" fill="none" xmlns="http://www.w3.org/2000/svg">
<path d="M11 0.492188C9.625 0.492188 8.32812 0.757813 7.10938 1.28906C5.89062 1.80469 4.82812 2.51563 3.92188 3.42188C3.01562 4.32812 2.30469 5.39062 1.78906 6.60938C1.25781 7.82812 0.992188 9.125 0.992188 10.5C0.992188 11.875 1.25781 13.1719 1.78906 14.3906C2.30469 15.6094 3.01562 16.6719 3.92188 17.5781C4.82812 18.4844 5.89062 19.1953 7.10938 19.7109C8.32812 20.2422 9.625 20.5078 11 20.5078C12.375 20.5078 13.6719 20.2422 14.8906 19.7109C16.1094 19.1953 17.1719 18.4844 18.0781 17.5781C18.9844 16.6719 19.6953 15.6094 20.2109 14.3906C20.7422 13.1719 21.0078 11.875 21.0078 10.5C21.0078 9.125 20.7422 7.82812 20.2109 6.60938C19.6953 5.39062 18.9844 4.32812 18.0781 3.42188C17.1719 2.51563 16.1094 1.80469 14.8906 1.28906C13.6719 0.757813 12.375 0.492188 11 0.492188ZM15.9922 14.0859L14.5859 15.4922L11 11.9062L7.41406 15.4922L6.00781 14.0859L9.59375 10.5L6.00781 6.91406L7.41406 5.50781L11 9.09375L14.5859 5.50781L15.9922 6.91406L12.4062 10.5L15.9922 14.0859Z" fill="#FF5B5B"/>
</svg>
