<svg width="23" height="21" viewBox="0 0 23 21" fill="none" xmlns="http://www.w3.org/2000/svg">
<path d="M9.25346 20.625V10.91H5.07143C5.07143 9.35397 5.36713 8.05023 5.95853 6.99883C6.54992 5.90537 7.64823 5.08528 9.25346 4.53855V0.375C7.94393 0.543225 6.71889 0.942757 5.57834 1.5736C4.48003 2.16238 3.52957 2.91939 2.72696 3.84463C1.92435 4.76986 1.29071 5.84229 0.826037 7.06192C0.40361 8.28154 0.213518 9.58528 0.25576 10.9731V20.625H9.25346ZM22.75 20.625V10.91H18.568C18.568 9.35397 18.8637 8.05023 19.4551 6.99883C20.0465 5.90537 21.1448 5.08528 22.75 4.53855V0.375C21.4405 0.543225 20.2154 0.942757 19.0749 1.5736C17.9766 2.16238 17.0261 2.91939 16.2235 3.84463C15.4209 4.76986 14.7872 5.84229 14.3226 7.06192C13.9002 8.28154 13.7101 9.58528 13.7523 10.9731V20.625H22.75Z" fill="black"/>
</svg>
