<svg width="23" height="21" viewBox="0 0 23 21" fill="none" xmlns="http://www.w3.org/2000/svg">
<path d="M13.7465 0.375001V10.09H17.9286C17.9286 11.646 17.6329 12.9498 17.0415 14.0012C16.4501 15.0946 15.3518 15.9147 13.7465 16.4614V20.625C15.0561 20.4568 16.2811 20.0572 17.4217 19.4264C18.52 18.8376 19.4704 18.0806 20.273 17.1554C21.0757 16.2301 21.7093 15.1577 22.174 13.9381C22.5964 12.7185 22.7865 11.4147 22.7442 10.0269V0.375002L13.7465 0.375001ZM0.250002 0.375L0.250001 10.09L4.43203 10.09C4.43203 11.646 4.13633 12.9498 3.54493 14.0012C2.95353 15.0946 1.85522 15.9147 0.25 16.4614L0.25 20.625C1.55952 20.4568 2.78456 20.0572 3.92511 19.4264C5.02342 18.8376 5.97389 18.0806 6.7765 17.1554C7.57911 16.2301 8.21275 15.1577 8.67742 13.9381C9.09985 12.7185 9.28994 11.4147 9.24769 10.0269L9.2477 0.375001L0.250002 0.375Z" fill="black"/>
</svg>
