<svg width="33" height="39" viewBox="0 0 33 39" fill="none" xmlns="http://www.w3.org/2000/svg">
<g clip-path="url(#clip0)">
<path d="M4.68082 16.5969C7.04676 18.1189 10.256 18.56 12.9901 18.56C16.8082 18.56 19.7072 17.7835 21.687 16.2305C22.6432 15.5061 23.41 14.5752 23.9258 13.5126C24.4415 12.45 24.6919 11.2855 24.6566 10.1125C24.6812 8.67669 24.2895 7.26286 23.5257 6.03071C22.7619 4.79855 21.6564 3.79715 20.3342 3.13963C19.4571 2.70983 18.5321 2.37816 17.5771 2.15107C16.0732 1.81535 14.5336 1.65211 12.9901 1.66474C9.17199 1.66474 6.27305 2.44122 4.29325 3.99417C3.33702 4.71861 2.57019 5.64957 2.05443 6.71219C1.53867 7.77482 1.28837 8.93946 1.32365 10.1125C1.28548 11.4505 1.5858 12.7773 2.19856 13.978C2.78213 15.0403 3.6364 15.9417 4.68082 16.5969ZM10.2591 4.32708C10.9129 3.2349 11.8232 2.68877 12.9901 2.68869C14.1568 2.68869 15.0671 3.23482 15.7211 4.32708C16.3749 5.41973 16.7019 7.34819 16.7022 10.1125C16.7022 12.8772 16.3751 14.8056 15.7211 15.8979C15.0666 16.9906 14.1563 17.5366 12.9901 17.536C11.8235 17.536 10.9132 16.99 10.2591 15.8979C9.60452 14.8057 9.27749 12.8772 9.27803 10.1125C9.27803 7.34756 9.60506 5.41909 10.2591 4.32708Z" fill="black"/>
<path d="M24.524 23.0912C23.021 21.6065 20.944 20.8641 18.293 20.8641H8.2175C6.62652 20.8641 5.52164 20.7105 4.90287 20.4032C4.65379 20.2985 4.43764 20.1324 4.27614 19.9214C4.11464 19.7105 4.01348 19.4623 3.98283 19.2017C3.9824 18.7863 4.14428 18.386 4.43614 18.0808C2.73472 17.9416 0.90421 18.8768 0.347629 20.4613C-0.0416601 21.5123 -0.0801328 22.6546 0.2376 23.7278C0.555332 24.8009 1.2133 25.751 2.11909 26.4445C3.53257 27.5031 5.56538 28.0322 8.2175 28.0319H18.293C22.5355 28.0319 24.6567 29.1411 24.6566 31.3597C24.6566 33.1004 23.6578 34.5595 21.6603 35.737C19.4394 37.0465 16.8171 37.6564 14.2379 37.8021C11.5447 37.9618 8.84848 37.5405 6.34498 36.5687C6.8649 36.1926 7.2872 35.705 7.5786 35.1443C7.87 34.5837 8.02253 33.9654 8.02416 33.3381C8.01431 32.7108 7.84888 32.095 7.54175 31.5421C7.23463 30.9893 6.79474 30.5156 6.25894 30.1607C5.71606 29.8158 5.09336 29.6058 4.44616 29.5492C3.79897 29.4927 3.14733 29.5914 2.54914 29.8365C1.74741 30.1917 1.07615 30.7733 0.624052 31.5046C0.163713 32.1951 -0.0491738 33.0124 0.0180901 33.8311C0.15984 34.7725 0.657022 35.6301 1.41405 36.2391C3.52427 38.0367 6.87179 38.5683 9.57611 38.8551C12.5887 39.1469 15.6302 38.9728 18.5859 38.3392C21.046 37.8431 23.5234 36.7247 25.1021 34.7708C26.3218 33.2613 26.7778 31.1877 26.7778 29.3118C26.7778 26.6495 26.0265 24.576 24.524 23.0912Z" fill="black"/>
<path d="M30.374 7.55674C32.4647 6.80193 33.5257 4.55372 32.7439 2.53524C31.9621 0.516767 29.6335 -0.507636 27.5428 0.24718C25.4521 1.002 24.3911 3.2502 25.1729 5.26867C25.9547 7.28715 28.2833 8.31156 30.374 7.55674Z" fill="black"/>
</g>
<defs>
<clipPath id="clip0">
<rect width="33" height="39" fill="white"/>
</clipPath>
</defs>
</svg>
