<svg width="22" height="22" viewBox="0 0 22 22" fill="none" xmlns="http://www.w3.org/2000/svg">
<path d="M21.12 0H0.88C0.39325 0 0 0.39325 0 0.88V21.12C0 21.6068 0.39325 22 0.88 22H21.12C21.6068 22 22 21.6068 22 21.12V0.88C22 0.39325 21.6068 0 21.12 0ZM16.9207 7.96675C16.929 8.096 16.929 8.23075 16.929 8.36275C16.929 12.3997 13.8545 17.05 8.23625 17.05C6.50375 17.05 4.89775 16.5468 3.54475 15.6805C3.79225 15.708 4.02875 15.719 4.28175 15.719C5.71175 15.719 7.02625 15.235 8.074 14.4155C6.732 14.388 5.6045 13.508 5.2195 12.298C5.68975 12.3668 6.11325 12.3668 6.59725 12.243C5.90625 12.1026 5.28516 11.7273 4.83949 11.1809C4.39383 10.6345 4.15109 9.95062 4.1525 9.2455V9.207C4.55675 9.43525 5.0325 9.5755 5.53025 9.59475C5.11182 9.31588 4.76866 8.93808 4.53121 8.49483C4.29375 8.05159 4.16934 7.55659 4.169 7.05375C4.169 6.4845 4.3175 5.96475 4.58425 5.51375C5.35123 6.45793 6.30831 7.23014 7.39328 7.78021C8.47825 8.33027 9.66682 8.64587 10.8818 8.7065C10.45 6.63025 12.001 4.95 13.8655 4.95C14.7455 4.95 15.5375 5.3185 16.0957 5.9125C16.786 5.78325 17.446 5.52475 18.0345 5.17825C17.8062 5.885 17.3277 6.48175 16.6925 6.8585C17.3085 6.7925 17.9025 6.622 18.4525 6.38275C18.0373 6.99325 17.5175 7.535 16.9207 7.96675Z" fill="black"/>
</svg>
